<mxfile host="app.diagrams.net" modified="2022-11-09T02:56:11.609Z" agent="5.0 (Windows NT 10.0; Win64; x64) AppleWebKit/537.36 (KHTML, like Gecko) Chrome/107.0.0.0 Safari/537.36" etag="UpPTh-3a-OVVh-5nq7UG" version="20.2.0" type="github">
  <diagram id="prtHgNgQTEPvFCAcTncT" name="Page-1">
    <mxGraphModel dx="3015" dy="1172" grid="1" gridSize="10" guides="1" tooltips="1" connect="1" arrows="1" fold="1" page="1" pageScale="1" pageWidth="827" pageHeight="1169" math="0" shadow="0">
      <root>
        <mxCell id="0" />
        <mxCell id="1" parent="0" />
        <mxCell id="dNxyNK7c78bLwvsdeMH5-11" value="灵素" style="swimlane;html=1;startSize=20;horizontal=1;containerType=tree;glass=0;fillColor=#FFFFFF;swimlaneFillColor=default;" parent="1" vertex="1">
          <mxGeometry x="-580" y="380" width="1890" height="470" as="geometry">
            <mxRectangle x="40" y="80" width="90" height="30" as="alternateBounds" />
          </mxGeometry>
        </mxCell>
        <mxCell id="YL_E93pqWgbs6z-ycBw5-39" style="edgeStyle=orthogonalEdgeStyle;rounded=0;orthogonalLoop=1;jettySize=auto;html=1;exitX=0.5;exitY=1;exitDx=0;exitDy=0;" edge="1" parent="dNxyNK7c78bLwvsdeMH5-11" source="dNxyNK7c78bLwvsdeMH5-12" target="YL_E93pqWgbs6z-ycBw5-3">
          <mxGeometry relative="1" as="geometry" />
        </mxCell>
        <mxCell id="YL_E93pqWgbs6z-ycBw5-40" style="edgeStyle=orthogonalEdgeStyle;rounded=0;orthogonalLoop=1;jettySize=auto;html=1;exitX=0.5;exitY=1;exitDx=0;exitDy=0;" edge="1" parent="dNxyNK7c78bLwvsdeMH5-11" source="dNxyNK7c78bLwvsdeMH5-12" target="YL_E93pqWgbs6z-ycBw5-7">
          <mxGeometry relative="1" as="geometry" />
        </mxCell>
        <mxCell id="YL_E93pqWgbs6z-ycBw5-41" style="edgeStyle=orthogonalEdgeStyle;rounded=0;orthogonalLoop=1;jettySize=auto;html=1;exitX=0.5;exitY=1;exitDx=0;exitDy=0;entryX=0.5;entryY=0;entryDx=0;entryDy=0;" edge="1" parent="dNxyNK7c78bLwvsdeMH5-11" source="dNxyNK7c78bLwvsdeMH5-12" target="YL_E93pqWgbs6z-ycBw5-4">
          <mxGeometry relative="1" as="geometry">
            <Array as="points">
              <mxPoint x="314" y="270" />
              <mxPoint x="120" y="270" />
            </Array>
          </mxGeometry>
        </mxCell>
        <mxCell id="YL_E93pqWgbs6z-ycBw5-42" style="edgeStyle=orthogonalEdgeStyle;rounded=0;orthogonalLoop=1;jettySize=auto;html=1;exitX=0.5;exitY=1;exitDx=0;exitDy=0;" edge="1" parent="dNxyNK7c78bLwvsdeMH5-11" source="dNxyNK7c78bLwvsdeMH5-12" target="YL_E93pqWgbs6z-ycBw5-6">
          <mxGeometry relative="1" as="geometry">
            <Array as="points">
              <mxPoint x="314" y="310" />
              <mxPoint x="314" y="310" />
            </Array>
          </mxGeometry>
        </mxCell>
        <mxCell id="YL_E93pqWgbs6z-ycBw5-43" style="edgeStyle=orthogonalEdgeStyle;rounded=0;orthogonalLoop=1;jettySize=auto;html=1;exitX=0.5;exitY=1;exitDx=0;exitDy=0;" edge="1" parent="dNxyNK7c78bLwvsdeMH5-11" source="dNxyNK7c78bLwvsdeMH5-12" target="YL_E93pqWgbs6z-ycBw5-8">
          <mxGeometry relative="1" as="geometry">
            <Array as="points">
              <mxPoint x="314" y="270" />
              <mxPoint x="495" y="270" />
            </Array>
          </mxGeometry>
        </mxCell>
        <UserObject label="营养师工作台" name="Tessa Miller" position="CFO" location="Office 1" email="me@example.com" placeholders="1" link="http://robotnu-test.manniuhealth.com/login" linkTarget="_blank" id="dNxyNK7c78bLwvsdeMH5-12">
          <mxCell style="label;whiteSpace=wrap;html=1;rounded=0;glass=0;treeMoving=1;treeFolding=1;fillColor=#fff2cc;strokeColor=#d6b656;" parent="dNxyNK7c78bLwvsdeMH5-11" vertex="1">
            <mxGeometry x="224" y="40" width="180" height="70" as="geometry" />
          </mxCell>
        </UserObject>
        <mxCell id="YL_E93pqWgbs6z-ycBw5-24" style="edgeStyle=orthogonalEdgeStyle;rounded=0;orthogonalLoop=1;jettySize=auto;html=1;exitX=0.5;exitY=1;exitDx=0;exitDy=0;entryX=0.5;entryY=0;entryDx=0;entryDy=0;" edge="1" parent="dNxyNK7c78bLwvsdeMH5-11" source="YL_E93pqWgbs6z-ycBw5-1" target="YL_E93pqWgbs6z-ycBw5-22">
          <mxGeometry relative="1" as="geometry" />
        </mxCell>
        <mxCell id="YL_E93pqWgbs6z-ycBw5-25" style="edgeStyle=orthogonalEdgeStyle;rounded=0;orthogonalLoop=1;jettySize=auto;html=1;exitX=0.5;exitY=1;exitDx=0;exitDy=0;" edge="1" parent="dNxyNK7c78bLwvsdeMH5-11" source="YL_E93pqWgbs6z-ycBw5-1" target="YL_E93pqWgbs6z-ycBw5-23">
          <mxGeometry relative="1" as="geometry" />
        </mxCell>
        <UserObject label="营养调查表B端" name="Tessa Miller" position="CFO" location="Office 1" email="me@example.com" placeholders="1" link="http://robotnu-test.manniuhealth.com/survey/create?username=xxx&amp;realName=xxx" linkTarget="_blank" id="YL_E93pqWgbs6z-ycBw5-1">
          <mxCell style="label;whiteSpace=wrap;html=1;rounded=0;glass=0;treeMoving=1;treeFolding=1;fillColor=#fff2cc;strokeColor=#d6b656;" vertex="1" parent="dNxyNK7c78bLwvsdeMH5-11">
            <mxGeometry x="700" y="40" width="170" height="70" as="geometry" />
          </mxCell>
        </UserObject>
        <mxCell id="YL_E93pqWgbs6z-ycBw5-34" style="edgeStyle=orthogonalEdgeStyle;rounded=0;orthogonalLoop=1;jettySize=auto;html=1;exitX=0.5;exitY=1;exitDx=0;exitDy=0;entryX=0.5;entryY=0;entryDx=0;entryDy=0;" edge="1" parent="dNxyNK7c78bLwvsdeMH5-11" source="YL_E93pqWgbs6z-ycBw5-2" target="YL_E93pqWgbs6z-ycBw5-11">
          <mxGeometry relative="1" as="geometry" />
        </mxCell>
        <mxCell id="YL_E93pqWgbs6z-ycBw5-35" style="edgeStyle=orthogonalEdgeStyle;rounded=0;orthogonalLoop=1;jettySize=auto;html=1;exitX=0.5;exitY=1;exitDx=0;exitDy=0;" edge="1" parent="dNxyNK7c78bLwvsdeMH5-11" source="YL_E93pqWgbs6z-ycBw5-2" target="YL_E93pqWgbs6z-ycBw5-15">
          <mxGeometry relative="1" as="geometry" />
        </mxCell>
        <mxCell id="YL_E93pqWgbs6z-ycBw5-37" style="edgeStyle=orthogonalEdgeStyle;rounded=0;orthogonalLoop=1;jettySize=auto;html=1;exitX=0.5;exitY=1;exitDx=0;exitDy=0;" edge="1" parent="dNxyNK7c78bLwvsdeMH5-11" source="YL_E93pqWgbs6z-ycBw5-2" target="YL_E93pqWgbs6z-ycBw5-13">
          <mxGeometry relative="1" as="geometry">
            <Array as="points">
              <mxPoint x="1599" y="250" />
              <mxPoint x="1599" y="250" />
            </Array>
          </mxGeometry>
        </mxCell>
        <mxCell id="YL_E93pqWgbs6z-ycBw5-38" style="edgeStyle=orthogonalEdgeStyle;rounded=0;orthogonalLoop=1;jettySize=auto;html=1;exitX=0.5;exitY=1;exitDx=0;exitDy=0;" edge="1" parent="dNxyNK7c78bLwvsdeMH5-11" source="YL_E93pqWgbs6z-ycBw5-2" target="YL_E93pqWgbs6z-ycBw5-16">
          <mxGeometry relative="1" as="geometry">
            <Array as="points">
              <mxPoint x="1599" y="270" />
              <mxPoint x="1789" y="270" />
            </Array>
          </mxGeometry>
        </mxCell>
        <mxCell id="YL_E93pqWgbs6z-ycBw5-49" style="edgeStyle=orthogonalEdgeStyle;rounded=0;orthogonalLoop=1;jettySize=auto;html=1;exitX=0.5;exitY=1;exitDx=0;exitDy=0;" edge="1" parent="dNxyNK7c78bLwvsdeMH5-11" source="YL_E93pqWgbs6z-ycBw5-2" target="YL_E93pqWgbs6z-ycBw5-12">
          <mxGeometry relative="1" as="geometry">
            <Array as="points">
              <mxPoint x="1599" y="270" />
              <mxPoint x="1384" y="270" />
            </Array>
          </mxGeometry>
        </mxCell>
        <UserObject label="问卷管理系统" name="Tessa Miller" position="CFO" location="Office 1" email="me@example.com" placeholders="1" link="http://robotnu-scale-test.manniuhealth.com/login" linkTarget="_blank" id="YL_E93pqWgbs6z-ycBw5-2">
          <mxCell style="label;whiteSpace=wrap;html=1;rounded=0;glass=0;treeMoving=1;treeFolding=1;fillColor=#fff2cc;strokeColor=#d6b656;" vertex="1" parent="dNxyNK7c78bLwvsdeMH5-11">
            <mxGeometry x="1509" y="40" width="180" height="70" as="geometry" />
          </mxCell>
        </UserObject>
        <UserObject label="客户服务管理" name="Tessa Miller" position="CFO" location="Office 1" email="me@example.com" placeholders="1" linkTarget="_blank" id="YL_E93pqWgbs6z-ycBw5-3">
          <mxCell style="label;whiteSpace=wrap;html=1;rounded=0;glass=0;treeMoving=1;treeFolding=1;fillColor=#dae8fc;strokeColor=#6c8ebf;" vertex="1" parent="dNxyNK7c78bLwvsdeMH5-11">
            <mxGeometry x="103" y="180" width="180" height="70" as="geometry" />
          </mxCell>
        </UserObject>
        <UserObject label="收藏配方管理" name="Tessa Miller" position="CFO" location="Office 1" email="me@example.com" placeholders="1" linkTarget="_blank" id="YL_E93pqWgbs6z-ycBw5-4">
          <mxCell style="label;whiteSpace=wrap;html=1;rounded=0;glass=0;treeMoving=1;treeFolding=1;fillColor=#d5e8d4;strokeColor=#82b366;" vertex="1" parent="dNxyNK7c78bLwvsdeMH5-11">
            <mxGeometry x="30" y="340" width="180" height="70" as="geometry" />
          </mxCell>
        </UserObject>
        <UserObject label="客户管理" name="Tessa Miller" position="CFO" location="Office 1" email="me@example.com" placeholders="1" linkTarget="_blank" id="YL_E93pqWgbs6z-ycBw5-6">
          <mxCell style="label;whiteSpace=wrap;html=1;rounded=0;glass=0;treeMoving=1;treeFolding=1;align=left;fillColor=#d5e8d4;strokeColor=#82b366;" vertex="1" parent="dNxyNK7c78bLwvsdeMH5-11">
            <mxGeometry x="240" y="340" width="150" height="70" as="geometry" />
          </mxCell>
        </UserObject>
        <UserObject label="系统用户管理&lt;span style=&quot;color: rgba(0, 0, 0, 0); font-family: monospace; font-size: 0px; font-weight: 400;&quot;&gt;%3CmxGraphModel%3E%3Croot%3E%3CmxCell%20id%3D%220%22%2F%3E%3CmxCell%20id%3D%221%22%20parent%3D%220%22%2F%3E%3CUserObject%20label%3D%22%E6%94%B6%E8%97%8F%E9%85%8D%E6%96%B9%E7%AE%A1%E7%90%86%22%20name%3D%22Tessa%20Miller%22%20position%3D%22CFO%22%20location%3D%22Office%201%22%20email%3D%22me%40example.com%22%20placeholders%3D%221%22%20linkTarget%3D%22_blank%22%20id%3D%222%22%3E%3CmxCell%20style%3D%22label%3BwhiteSpace%3Dwrap%3Bhtml%3D1%3Brounded%3D0%3Bglass%3D0%3BtreeMoving%3D1%3BtreeFolding%3D1%3B%22%20vertex%3D%221%22%20parent%3D%221%22%3E%3CmxGeometry%20x%3D%22300%22%20y%3D%22260%22%20width%3D%22180%22%20height%3D%2270%22%20as%3D%22geometry%22%2F%3E%3C%2FmxCell%3E%3C%2FUserObject%3E%3C%2Froot%3E%3C%2FmxGraphModel%3E&lt;/span&gt;" name="Tessa Miller" position="CFO" location="Office 1" email="me@example.com" placeholders="1" linkTarget="_blank" id="YL_E93pqWgbs6z-ycBw5-7">
          <mxCell style="label;whiteSpace=wrap;html=1;rounded=0;glass=0;treeMoving=1;treeFolding=1;fillColor=#dae8fc;strokeColor=#6c8ebf;" vertex="1" parent="dNxyNK7c78bLwvsdeMH5-11">
            <mxGeometry x="343" y="180" width="180" height="70" as="geometry" />
          </mxCell>
        </UserObject>
        <UserObject label="日志查看" name="Tessa Miller" position="CFO" location="Office 1" email="me@example.com" placeholders="1" linkTarget="_blank" id="YL_E93pqWgbs6z-ycBw5-8">
          <mxCell style="label;whiteSpace=wrap;html=1;rounded=0;glass=0;treeMoving=1;treeFolding=1;fillColor=#d5e8d4;strokeColor=#82b366;" vertex="1" parent="dNxyNK7c78bLwvsdeMH5-11">
            <mxGeometry x="420" y="340" width="150" height="70" as="geometry" />
          </mxCell>
        </UserObject>
        <UserObject label="问卷列表&lt;span style=&quot;color: rgba(0, 0, 0, 0); font-family: monospace; font-size: 0px; font-weight: 400;&quot;&gt;%3CmxGraphModel%3E%3Croot%3E%3CmxCell%20id%3D%220%22%2F%3E%3CmxCell%20id%3D%221%22%20parent%3D%220%22%2F%3E%3CUserObject%20label%3D%22%E5%AE%A2%E6%88%B7%E7%AE%A1%E7%90%86%22%20name%3D%22Tessa%20Miller%22%20position%3D%22CFO%22%20location%3D%22Office%201%22%20email%3D%22me%40example.com%22%20placeholders%3D%221%22%20linkTarget%3D%22_blank%22%20id%3D%222%22%3E%3CmxCell%20style%3D%22label%3BwhiteSpace%3Dwrap%3Bhtml%3D1%3Brounded%3D0%3Bglass%3D0%3BtreeMoving%3D1%3BtreeFolding%3D1%3Balign%3Dleft%3B%22%20vertex%3D%221%22%20parent%3D%221%22%3E%3CmxGeometry%20x%3D%22-11%22%20y%3D%22450%22%20width%3D%22150%22%20height%3D%2270%22%20as%3D%22geometry%22%2F%3E%3C%2FmxCell%3E%3C%2FUserObject%3E%3C%2Froot%3E%3C%2FmxGraphModel%3E&lt;/span&gt;" name="Tessa Miller" position="CFO" location="Office 1" email="me@example.com" placeholders="1" linkTarget="_blank" id="YL_E93pqWgbs6z-ycBw5-11">
          <mxCell style="label;whiteSpace=wrap;html=1;rounded=0;glass=0;treeMoving=1;treeFolding=1;align=left;fillColor=#dae8fc;strokeColor=#6c8ebf;" vertex="1" parent="dNxyNK7c78bLwvsdeMH5-11">
            <mxGeometry x="1431" y="180" width="150" height="70" as="geometry" />
          </mxCell>
        </UserObject>
        <UserObject label="收藏题目管理" name="Tessa Miller" position="CFO" location="Office 1" email="me@example.com" placeholders="1" linkTarget="_blank" id="YL_E93pqWgbs6z-ycBw5-12">
          <mxCell style="label;whiteSpace=wrap;html=1;rounded=0;glass=0;treeMoving=1;treeFolding=1;align=left;fillColor=#d5e8d4;strokeColor=#82b366;" vertex="1" parent="dNxyNK7c78bLwvsdeMH5-11">
            <mxGeometry x="1320" y="340" width="169" height="70" as="geometry" />
          </mxCell>
        </UserObject>
        <UserObject label="系统配置" name="Tessa Miller" position="CFO" location="Office 1" email="me@example.com" placeholders="1" linkTarget="_blank" id="YL_E93pqWgbs6z-ycBw5-13">
          <mxCell style="label;whiteSpace=wrap;html=1;rounded=0;glass=0;treeMoving=1;treeFolding=1;align=left;fillColor=#d5e8d4;strokeColor=#82b366;" vertex="1" parent="dNxyNK7c78bLwvsdeMH5-11">
            <mxGeometry x="1524" y="340" width="150" height="70" as="geometry" />
          </mxCell>
        </UserObject>
        <UserObject label="用户管理" name="Tessa Miller" position="CFO" location="Office 1" email="me@example.com" placeholders="1" linkTarget="_blank" id="YL_E93pqWgbs6z-ycBw5-15">
          <mxCell style="label;whiteSpace=wrap;html=1;rounded=0;glass=0;treeMoving=1;treeFolding=1;align=left;fillColor=#dae8fc;strokeColor=#6c8ebf;" vertex="1" parent="dNxyNK7c78bLwvsdeMH5-11">
            <mxGeometry x="1630" y="180" width="150" height="70" as="geometry" />
          </mxCell>
        </UserObject>
        <UserObject label="日志查看" name="Tessa Miller" position="CFO" location="Office 1" email="me@example.com" placeholders="1" linkTarget="_blank" id="YL_E93pqWgbs6z-ycBw5-16">
          <mxCell style="label;whiteSpace=wrap;html=1;rounded=0;glass=0;treeMoving=1;treeFolding=1;align=left;fillColor=#d5e8d4;strokeColor=#82b366;" vertex="1" parent="dNxyNK7c78bLwvsdeMH5-11">
            <mxGeometry x="1719" y="340" width="150" height="70" as="geometry" />
          </mxCell>
        </UserObject>
        <UserObject label="上传报告并识别" name="Tessa Miller" position="CFO" location="Office 1" email="me@example.com" placeholders="1" linkTarget="_blank" id="YL_E93pqWgbs6z-ycBw5-22">
          <mxCell style="label;whiteSpace=wrap;html=1;rounded=0;glass=0;treeMoving=1;treeFolding=1;fillColor=#dae8fc;strokeColor=#6c8ebf;" vertex="1" parent="dNxyNK7c78bLwvsdeMH5-11">
            <mxGeometry x="580" y="180" width="189" height="70" as="geometry" />
          </mxCell>
        </UserObject>
        <UserObject label="填写调查表" name="Tessa Miller" position="CFO" location="Office 1" email="me@example.com" placeholders="1" linkTarget="_blank" id="YL_E93pqWgbs6z-ycBw5-23">
          <mxCell style="label;whiteSpace=wrap;html=1;rounded=0;glass=0;treeMoving=1;treeFolding=1;fillColor=#dae8fc;strokeColor=#6c8ebf;" vertex="1" parent="dNxyNK7c78bLwvsdeMH5-11">
            <mxGeometry x="795.5" y="180" width="159" height="70" as="geometry" />
          </mxCell>
        </UserObject>
        <UserObject label="营养调查表C端" name="Tessa Miller" position="CFO" location="Office 1" email="me@example.com" placeholders="1" link="http://robotnu-test.manniuhealth.com/survey/create?username=xxx&amp;realName=xxx" linkTarget="_blank" id="YL_E93pqWgbs6z-ycBw5-29">
          <mxCell style="label;whiteSpace=wrap;html=1;rounded=0;glass=0;treeMoving=1;treeFolding=1;fillColor=#fff2cc;strokeColor=#d6b656;" vertex="1" parent="dNxyNK7c78bLwvsdeMH5-11">
            <mxGeometry x="1097" y="40" width="173" height="70" as="geometry" />
          </mxCell>
        </UserObject>
        <UserObject label="上传报告并识别" name="Tessa Miller" position="CFO" location="Office 1" email="me@example.com" placeholders="1" linkTarget="_blank" id="YL_E93pqWgbs6z-ycBw5-30">
          <mxCell style="label;whiteSpace=wrap;html=1;rounded=0;glass=0;treeMoving=1;treeFolding=1;fillColor=#dae8fc;strokeColor=#6c8ebf;" vertex="1" parent="dNxyNK7c78bLwvsdeMH5-11">
            <mxGeometry x="990" y="180" width="189" height="70" as="geometry" />
          </mxCell>
        </UserObject>
        <mxCell id="YL_E93pqWgbs6z-ycBw5-27" style="edgeStyle=orthogonalEdgeStyle;rounded=0;orthogonalLoop=1;jettySize=auto;html=1;exitX=0.5;exitY=1;exitDx=0;exitDy=0;entryX=0.5;entryY=0;entryDx=0;entryDy=0;" edge="1" parent="dNxyNK7c78bLwvsdeMH5-11" source="YL_E93pqWgbs6z-ycBw5-29" target="YL_E93pqWgbs6z-ycBw5-30">
          <mxGeometry relative="1" as="geometry" />
        </mxCell>
        <UserObject label="填写调查表" name="Tessa Miller" position="CFO" location="Office 1" email="me@example.com" placeholders="1" linkTarget="_blank" id="YL_E93pqWgbs6z-ycBw5-31">
          <mxCell style="label;whiteSpace=wrap;html=1;rounded=0;glass=0;treeMoving=1;treeFolding=1;fillColor=#dae8fc;strokeColor=#6c8ebf;" vertex="1" parent="dNxyNK7c78bLwvsdeMH5-11">
            <mxGeometry x="1220" y="180" width="159" height="70" as="geometry" />
          </mxCell>
        </UserObject>
        <mxCell id="YL_E93pqWgbs6z-ycBw5-28" style="edgeStyle=orthogonalEdgeStyle;rounded=0;orthogonalLoop=1;jettySize=auto;html=1;exitX=0.5;exitY=1;exitDx=0;exitDy=0;" edge="1" parent="dNxyNK7c78bLwvsdeMH5-11" source="YL_E93pqWgbs6z-ycBw5-29" target="YL_E93pqWgbs6z-ycBw5-31">
          <mxGeometry relative="1" as="geometry" />
        </mxCell>
      </root>
    </mxGraphModel>
  </diagram>
</mxfile>
